<svg xmlns="http://www.w3.org/2000/svg" xmlns:xlink="http://www.w3.org/1999/xlink" version="1.1" width="256" height="256" viewBox="0 0 256 256" xml:space="preserve">

<defs>
</defs>
<g style="stroke: none; stroke-width: 0; stroke-dasharray: none; stroke-linecap: butt; stroke-linejoin: miter; stroke-miterlimit: 10; fill: none; fill-rule: nonzero; opacity: 1;" transform="translate(1.4065934065934016 1.4065934065934016) scale(2.81 2.81)" >
	<path d="M 36.18 51.311 c -0.591 0 -1.182 -0.155 -1.721 -0.466 c -1.078 -0.623 -1.721 -1.737 -1.721 -2.981 V 25.235 c 0 -1.244 0.644 -2.358 1.721 -2.98 c 1.078 -0.623 2.364 -0.621 3.441 0 l 19.594 11.314 c 1.077 0.622 1.721 1.736 1.721 2.98 c 0 1.244 -0.644 2.358 -1.721 2.98 L 37.901 50.845 C 37.362 51.155 36.771 51.311 36.18 51.311 z M 36.739 26.203 v 20.693 L 54.657 36.55 L 36.739 26.203 z" style="stroke: none; stroke-width: 1; stroke-dasharray: none; stroke-linecap: butt; stroke-linejoin: miter; stroke-miterlimit: 10; fill: rgb(255,255,255); fill-rule: nonzero; opacity: 1;" transform=" matrix(1 0 0 1 0 0) " stroke-linecap="round" />
	<path d="M 81.783 68.45 H 8.217 C 3.686 68.45 0 64.764 0 60.233 V 12.866 c 0 -4.531 3.686 -8.217 8.217 -8.217 h 73.566 c 4.53 0 8.217 3.686 8.217 8.217 v 47.368 C 90 64.764 86.313 68.45 81.783 68.45 z M 8.217 8.649 C 5.892 8.649 4 10.541 4 12.866 v 47.368 c 0 2.325 1.892 4.217 4.217 4.217 h 73.566 c 2.325 0 4.217 -1.892 4.217 -4.217 V 12.866 c 0 -2.325 -1.892 -4.217 -4.217 -4.217 H 8.217 z" style="stroke: none; stroke-width: 1; stroke-dasharray: none; stroke-linecap: butt; stroke-linejoin: miter; stroke-miterlimit: 10; fill: rgb(255,255,255); fill-rule: nonzero; opacity: 1;" transform=" matrix(1 0 0 1 0 0) " stroke-linecap="round" />
	<path d="M 27.33 85.352 h -3.386 c -2.77 0 -5.023 -2.254 -5.023 -5.023 v -3.387 c 0 -2.77 2.253 -5.023 5.023 -5.023 h 3.386 c 2.77 0 5.023 2.254 5.023 5.023 v 3.387 C 32.353 83.098 30.1 85.352 27.33 85.352 z M 23.943 75.918 c -0.564 0 -1.023 0.459 -1.023 1.023 v 3.387 c 0 0.564 0.459 1.023 1.023 1.023 h 3.386 c 0.564 0 1.023 -0.459 1.023 -1.023 v -3.387 c 0 -0.564 -0.459 -1.023 -1.023 -1.023 H 23.943 z" style="stroke: none; stroke-width: 1; stroke-dasharray: none; stroke-linecap: butt; stroke-linejoin: miter; stroke-miterlimit: 10; fill: rgb(255,255,255); fill-rule: nonzero; opacity: 1;" transform=" matrix(1 0 0 1 0 0) " stroke-linecap="round" />
	<path d="M 20.92 80.635 H 2 c -1.104 0 -2 -0.896 -2 -2 s 0.896 -2 2 -2 h 18.92 c 1.104 0 2 0.896 2 2 S 22.024 80.635 20.92 80.635 z" style="stroke: none; stroke-width: 1; stroke-dasharray: none; stroke-linecap: butt; stroke-linejoin: miter; stroke-miterlimit: 10; fill: rgb(255,255,255); fill-rule: nonzero; opacity: 1;" transform=" matrix(1 0 0 1 0 0) " stroke-linecap="round" />
	<path d="M 88 80.635 H 38.334 c -1.104 0 -2 -0.896 -2 -2 s 0.896 -2 2 -2 H 88 c 1.104 0 2 0.896 2 2 S 89.104 80.635 88 80.635 z" style="stroke: none; stroke-width: 1; stroke-dasharray: none; stroke-linecap: butt; stroke-linejoin: miter; stroke-miterlimit: 10; fill: rgb(255,255,255); fill-rule: nonzero; opacity: 1;" transform=" matrix(1 0 0 1 0 0) " stroke-linecap="round" />
</g>
</svg>